<?xml version="1.0" encoding="UTF-8" ?>
<!DOCTYPE svg PUBLIC "-//W3C//DTD SVG 1.1//EN" "http://www.w3.org/Graphics/SVG/1.1/DTD/svg11.dtd">
<svg width="86pt" height="86pt" viewBox="0 0 86 86" version="1.1" xmlns="http://www.w3.org/2000/svg">
<g id="#000000ff">
<path fill="#000000" opacity="1.00" d=" M 37.60 4.10 C 49.86 1.88 63.17 6.19 71.84 15.15 C 75.92 19.02 78.38 24.13 80.71 29.15 C 84.86 39.19 83.72 50.83 78.77 60.38 C 73.96 70.98 63.40 77.95 52.44 80.92 C 42.85 82.86 32.40 81.61 24.04 76.32 C 8.55 67.58 0.94 47.25 6.84 30.48 C 11.34 16.99 23.41 6.19 37.60 4.10 M 29.97 18.64 C 25.47 26.51 21.03 34.44 16.17 42.11 C 17.12 45.66 19.54 48.51 21.24 51.70 C 24.08 56.79 27.18 61.72 29.95 66.85 C 39.33 66.69 48.73 67.09 58.11 66.62 C 62.06 58.48 67.42 51.08 71.05 42.77 C 67.31 34.43 62.54 26.62 58.11 18.63 C 48.73 18.56 39.35 18.58 29.97 18.64 Z" />
</g>
</svg>
