<svg xmlns="http://www.w3.org/2000/svg" version="1.1" viewBox="165.59 265.52 293.43 331.81">
<g id="#000000ff">
<path fill="#000000" opacity="1.00" d=" M 289.12 266.43 C 304.40 265.37 319.75 265.15 335.03 266.25 C 342.08 266.11 348.81 268.49 355.79 269.08 C 362.04 271.00 368.63 271.35 374.83 273.47 C 387.00 276.74 398.91 281.08 410.08 286.98 C 420.89 291.94 431.03 298.24 440.62 305.26 C 446.96 309.87 452.43 315.63 457.07 321.94 C 459.91 325.31 458.79 329.99 458.85 334.02 C 459.16 338.74 455.57 342.64 451.69 344.76 C 446.91 345.90 441.91 345.02 437.04 345.20 C 415.87 345.22 394.69 345.07 373.53 345.40 C 371.52 347.60 368.50 349.60 368.56 352.92 C 368.47 356.03 371.07 358.20 372.01 360.98 C 371.90 364.24 368.50 366.60 369.07 370.02 C 369.32 372.97 372.01 375.04 372.30 377.97 C 372.16 380.94 369.08 382.91 369.10 385.95 C 368.66 389.31 371.71 391.75 371.94 394.96 C 371.46 397.58 368.97 399.34 368.38 401.95 C 368.16 405.16 370.88 407.44 372.08 410.19 C 371.75 412.84 369.15 414.47 368.40 416.98 C 367.94 420.78 372.27 423.24 371.92 427.02 C 371.02 429.51 368.72 431.32 368.19 433.95 C 368.26 437.39 372.26 439.42 372.12 442.92 C 371.45 445.18 369.63 446.87 368.67 449.00 C 368.44 452.05 371.12 454.26 371.94 457.05 C 371.76 460.29 368.16 462.46 368.38 465.84 C 369.15 468.55 371.22 470.64 372.61 473.05 C 371.25 475.50 369.40 477.66 368.24 480.23 C 368.28 483.88 371.56 486.47 372.18 489.98 C 371.10 492.68 368.36 494.87 368.73 498.01 C 369.43 500.16 371.07 501.87 371.80 504.01 C 371.81 505.54 370.28 506.48 369.52 507.67 C 369.27 510.33 368.27 513.47 370.23 515.74 C 370.91 517.00 372.28 518.22 371.91 519.80 C 371.26 521.01 370.22 521.95 369.34 522.99 C 369.29 524.28 369.21 525.58 369.34 526.88 C 369.82 529.09 371.97 530.71 371.97 533.04 C 371.33 535.19 369.62 536.88 369.16 539.09 C 369.15 540.83 370.32 542.26 370.98 543.80 C 373.30 547.13 369.28 550.34 369.27 553.85 C 370.46 555.50 371.56 557.23 372.59 559.00 C 371.46 561.31 369.66 563.37 369.19 565.95 C 369.08 569.69 373.32 572.69 371.59 576.56 C 369.14 581.85 364.46 585.89 359.20 588.28 C 353.66 590.84 348.74 594.48 343.35 597.33 C 323.57 596.99 303.78 597.22 284.00 597.19 C 279.13 597.43 275.37 593.94 271.37 591.73 C 265.24 587.90 257.45 585.19 254.46 577.99 C 254.45 574.85 257.05 572.22 256.82 569.04 C 256.17 566.50 254.45 564.42 253.53 562.00 C 254.41 559.55 256.44 557.56 256.75 554.93 C 257.10 552.28 254.78 550.54 253.27 548.75 C 253.71 545.91 255.41 543.56 256.48 540.96 C 257.39 537.59 254.53 534.97 253.43 532.06 C 253.79 529.17 256.67 527.12 256.59 524.08 C 257.03 520.86 253.81 518.88 253.23 515.98 C 254.25 513.25 257.02 511.17 256.59 507.92 C 257.30 504.50 254.41 502.10 253.44 499.13 C 254.68 496.83 256.80 494.76 256.69 491.96 C 256.78 488.66 253.80 486.40 253.15 483.27 C 255.67 481.23 256.96 478.18 256.69 474.95 C 257.11 471.83 253.70 470.01 253.33 467.16 C 254.30 464.39 257.22 462.27 256.63 459.05 C 256.78 456.10 255.24 453.58 253.14 451.66 C 254.30 448.78 256.89 446.32 256.67 443.02 C 256.84 440.16 254.95 437.88 253.33 435.75 C 254.63 432.80 256.76 430.18 257.50 427.01 C 256.71 423.80 255.10 420.87 253.59 417.95 C 255.18 415.24 257.17 412.36 256.80 409.05 C 256.36 406.42 253.97 404.65 253.31 402.10 C 254.65 399.36 257.11 397.14 257.73 394.09 C 257.10 391.29 255.13 389.00 254.15 386.31 C 255.74 384.16 257.90 381.92 257.72 379.03 C 257.56 376.29 255.37 374.29 254.38 371.85 C 254.74 368.93 256.98 366.63 257.77 363.82 C 257.49 361.47 256.23 359.37 255.88 357.03 C 256.41 354.88 257.69 353.03 258.47 350.98 C 257.64 348.84 256.54 345.61 253.94 345.28 C 226.99 345.16 200.04 345.48 173.10 345.15 C 170.90 343.27 168.25 341.67 166.96 338.97 C 164.20 331.51 165.51 322.14 171.87 316.87 C 181.86 306.16 194.23 298.10 206.98 291.06 C 223.40 282.47 240.80 275.65 258.90 271.59 C 264.40 271.15 269.51 268.72 275.03 268.53 C 279.79 268.24 284.36 266.68 289.12 266.43 Z"/>
</g>
</svg>