<?xml version="1.0" encoding="UTF-8" ?>
<!DOCTYPE svg PUBLIC "-//W3C//DTD SVG 1.1//EN" "http://www.w3.org/Graphics/SVG/1.1/DTD/svg11.dtd">
<svg width="673pt" height="669pt" viewBox="0 0 673 669" version="1.1" xmlns="http://www.w3.org/2000/svg">
<g id="#000000ff">
<path fill="#000000" opacity="1.00" d=" M 314.53 21.37 C 321.81 14.16 329.36 7.21 336.76 0.12 C 344.44 7.13 352.29 13.94 359.85 21.08 C 368.18 14.92 376.31 8.48 384.72 2.41 C 390.99 10.84 397.62 18.99 403.98 27.35 C 412.68 21.95 421.43 16.63 430.22 11.37 C 435.51 20.81 440.67 30.35 445.52 40.02 C 455.64 36.94 464.89 31.48 474.97 28.25 C 478.36 38.42 482.22 48.43 485.85 58.51 C 495.97 55.51 506.19 52.83 516.34 49.96 C 519.02 60.52 521.38 71.15 524.17 81.67 C 534.19 80.01 544.34 79.29 554.36 77.61 C 555.62 80.92 555.25 84.55 555.82 88.00 C 556.78 95.26 557.30 102.57 558.20 109.84 C 568.58 109.57 578.96 109.95 589.34 109.82 C 588.36 120.25 587.54 130.70 586.93 141.16 C 597.26 143.23 607.60 145.21 617.89 147.46 C 616.14 157.52 613.60 167.43 611.95 177.52 C 621.83 180.86 631.63 184.42 641.52 187.75 C 637.71 197.52 633.55 207.16 629.91 217.00 C 639.01 221.65 648.21 226.11 657.25 230.90 C 652.82 240.11 647.98 249.10 643.42 258.24 C 642.40 259.50 644.44 260.09 645.15 260.73 C 653.11 265.68 660.73 271.16 668.69 276.12 C 662.59 284.95 656.28 293.64 649.90 302.27 C 657.23 309.60 665.61 315.79 672.99 323.07 C 666.22 331.26 658.28 338.44 651.01 346.20 C 657.37 354.46 664.23 362.32 670.63 370.55 C 662.29 377.13 653.68 383.36 645.40 390.01 C 650.82 398.64 656.01 407.46 662.01 415.70 C 653.22 421.95 643.96 427.55 634.89 433.39 C 638.74 442.86 643.26 452.05 647.64 461.29 C 637.89 465.46 628.02 469.37 618.16 473.28 C 620.98 483.25 623.56 493.31 626.02 503.38 L 625.53 503.99 C 615.90 506.79 606.17 509.28 596.49 511.96 C 597.73 522.21 598.69 532.49 599.75 542.77 C 589.48 543.93 579.23 545.29 568.98 546.60 C 569.30 557.21 568.79 567.83 568.80 578.45 C 558.33 577.35 547.81 576.71 537.33 575.66 C 535.65 586.23 534.01 596.84 533.04 607.51 C 522.58 605.59 512.17 603.39 501.76 601.23 C 498.64 611.33 495.43 621.41 492.35 631.53 C 482.42 628.08 472.57 624.39 462.57 621.14 C 458.35 631.06 454.51 641.14 450.23 651.04 C 440.93 645.98 431.50 641.19 422.06 636.41 C 416.74 645.30 411.04 653.96 405.78 662.89 C 396.84 657.43 388.37 651.23 379.69 645.36 C 373.28 653.29 366.89 661.22 360.18 668.89 C 352.40 661.76 344.65 654.61 336.85 647.53 C 331.14 653.26 325.56 659.12 319.74 664.74 C 318.39 666.04 316.99 667.34 316.06 669.00 L 315.46 669.00 C 308.18 661.20 301.59 652.79 294.75 644.62 C 286.18 650.68 278.10 657.43 269.33 663.21 C 263.87 654.37 258.25 645.62 252.58 636.91 C 243.07 641.12 233.87 646.02 224.65 650.82 C 219.77 641.22 216.15 631.02 211.70 621.22 C 201.66 624.64 191.63 628.14 181.71 631.90 C 178.40 621.78 175.43 611.55 171.80 601.54 C 161.75 603.60 151.71 605.70 141.64 607.63 C 139.96 596.93 138.55 586.18 137.02 575.46 C 126.64 576.63 116.21 577.40 105.81 578.42 C 105.84 567.72 105.40 557.03 104.84 546.35 C 94.66 545.54 84.57 543.72 74.37 543.08 C 75.35 532.70 76.32 522.30 77.69 511.97 C 67.64 509.17 57.55 506.51 47.44 503.99 C 49.84 493.70 52.78 483.54 55.42 473.31 C 45.71 469.09 35.76 465.44 26.01 461.35 C 30.30 452.14 34.41 442.85 38.39 433.50 C 29.33 427.69 20.34 421.79 11.15 416.20 C 16.77 407.63 22.19 398.93 27.59 390.21 C 19.09 383.98 10.99 377.24 2.42 371.12 C 8.81 362.73 15.86 354.83 22.03 346.29 C 14.91 338.57 7.25 331.30 0.00 323.67 L 0.00 323.00 C 7.82 316.18 15.57 309.28 23.56 302.67 C 17.21 293.90 10.89 285.10 4.21 276.59 C 12.48 270.27 21.82 265.42 29.99 259.01 C 25.59 249.47 20.47 240.26 16.15 230.68 C 25.29 226.26 34.35 221.67 43.50 217.27 C 39.67 207.37 35.81 197.48 31.82 187.65 C 41.87 184.30 51.96 181.10 61.99 177.71 C 59.78 167.65 57.88 157.52 55.59 147.48 C 65.97 145.31 76.42 143.46 86.72 140.96 C 85.77 130.74 85.06 120.50 84.46 110.26 C 94.85 109.80 105.24 109.63 115.64 109.65 C 116.60 99.00 117.65 88.35 118.46 77.69 C 128.82 78.97 139.20 80.05 149.54 81.50 C 152.29 71.17 154.76 60.76 157.00 50.30 C 167.36 52.70 177.64 55.43 187.88 58.28 C 191.75 48.33 195.83 38.45 199.12 28.30 C 209.17 31.82 218.81 36.46 228.60 40.64 C 233.78 30.78 238.70 20.79 243.90 10.95 C 252.73 16.46 261.75 21.68 270.40 27.47 C 276.98 18.97 283.30 10.28 289.78 1.69 C 298.32 7.85 306.25 14.85 314.53 21.37 M 326.77 46.17 C 280.14 47.79 234.22 61.88 193.91 85.17 C 155.18 107.00 122.21 138.59 97.89 175.73 C 64.14 226.76 47.46 288.94 51.89 350.01 C 55.10 401.57 73.40 451.92 103.28 493.99 C 126.34 526.51 156.27 554.12 190.48 574.59 C 224.83 594.92 263.37 607.92 302.85 613.52 C 332.78 617.54 363.34 616.39 392.96 610.61 C 412.57 606.86 431.57 600.47 450.04 592.99 C 469.68 584.78 488.27 574.13 505.54 561.71 C 532.27 542.29 556.30 518.91 575.18 491.73 C 599.72 456.66 615.83 415.76 622.15 373.44 C 626.99 340.78 626.34 307.32 620.25 274.87 C 609.04 218.15 579.41 165.56 537.87 125.50 C 506.11 95.10 467.06 72.48 425.12 59.41 C 393.35 49.72 359.99 44.68 326.77 46.17 Z" />
<path fill="#000000" opacity="1.00" d=" M 314.93 65.93 C 330.91 64.53 346.97 64.74 362.94 66.28 C 392.49 68.82 421.69 75.91 448.95 87.66 C 487.02 104.40 521.21 130.06 547.46 162.35 C 574.17 195.26 593.57 234.34 602.15 275.93 C 604.82 288.48 606.28 301.25 607.14 314.04 C 607.47 329.41 608.03 344.89 605.96 360.17 C 600.90 403.59 585.44 445.93 560.39 481.82 C 554.24 491.28 546.54 499.59 539.12 508.05 C 515.35 534.86 485.90 556.32 453.91 572.29 C 415.69 590.21 373.16 598.56 331.02 597.54 C 290.83 596.67 251.11 585.91 215.19 568.05 C 180.27 550.07 149.38 524.45 124.99 493.69 C 111.90 476.73 100.99 458.14 92.22 438.61 C 80.42 412.85 72.58 385.22 69.83 357.00 C 66.95 328.67 68.93 299.87 75.49 272.16 C 79.72 253.62 86.68 235.83 94.40 218.50 C 113.35 177.40 142.56 140.89 179.47 114.55 C 200.27 99.55 223.27 87.61 247.50 79.21 C 269.35 72.13 292.05 67.79 314.93 65.93 M 365.33 245.02 C 354.72 252.84 351.07 267.22 352.83 279.81 C 353.70 289.32 358.75 297.92 365.36 304.62 C 376.62 315.88 390.68 323.82 402.26 334.72 C 406.58 339.05 410.79 344.47 410.45 350.94 C 410.95 358.10 405.04 364.73 398.01 365.53 C 393.18 366.12 387.85 365.87 383.80 362.87 C 378.46 359.65 376.01 353.65 373.86 348.11 C 365.31 350.01 356.66 351.37 348.08 353.13 C 351.16 365.08 357.30 377.09 368.23 383.60 C 379.37 389.68 392.74 391.23 405.11 388.65 C 414.10 387.15 423.02 383.10 428.83 375.89 C 438.00 364.94 439.47 349.05 435.06 335.80 C 432.18 326.44 425.76 318.63 418.37 312.41 C 406.74 302.75 393.46 295.00 383.05 283.92 C 378.18 279.08 375.76 270.98 379.65 264.84 C 384.72 257.57 396.24 257.59 402.68 263.00 C 406.72 266.12 408.43 271.06 410.04 275.71 C 418.01 273.47 426.20 272.12 434.21 270.05 C 433.08 260.01 427.98 250.02 419.77 243.80 C 414.25 239.31 407.32 236.87 400.29 236.09 C 388.12 234.68 374.96 237.03 365.33 245.02 M 140.45 236.53 C 140.45 287.25 140.58 337.97 140.37 388.69 C 149.10 388.65 157.83 388.65 166.56 388.68 C 166.44 367.36 166.61 346.04 166.49 324.72 C 178.80 324.69 191.11 324.89 203.42 324.71 C 203.42 316.67 203.42 308.63 203.42 300.60 C 191.12 300.74 178.83 300.54 166.53 300.71 C 166.53 287.38 166.55 274.06 166.51 260.74 C 182.42 260.73 198.33 260.80 214.24 260.68 C 214.09 252.52 214.19 244.36 214.18 236.21 C 209.80 236.74 205.38 236.46 200.98 236.50 C 180.80 236.53 160.62 236.49 140.45 236.53 M 236.21 236.58 C 236.18 273.06 236.15 309.54 236.21 346.03 C 236.65 358.80 240.57 372.70 251.15 380.78 C 260.26 388.30 272.67 389.60 284.05 389.82 C 294.40 388.52 305.84 387.26 313.73 379.66 C 323.37 370.93 327.27 357.65 327.77 345.01 C 327.81 308.91 327.87 272.81 327.75 236.71 C 319.21 236.85 310.67 236.78 302.14 236.75 C 302.16 266.82 302.13 296.89 302.15 326.96 C 302.05 335.30 302.81 343.86 300.11 351.90 C 298.34 356.83 295.34 361.94 290.10 363.70 C 284.56 365.47 278.26 365.52 272.86 363.20 C 268.21 361.18 265.43 356.51 264.00 351.85 C 261.62 344.47 262.20 336.62 262.14 328.98 C 262.10 298.19 262.12 267.40 262.10 236.61 C 253.47 236.60 244.84 236.63 236.21 236.58 M 458.20 236.64 C 458.48 258.08 458.23 279.53 458.31 300.97 C 458.24 330.21 458.47 359.45 458.20 388.68 C 485.01 388.56 511.84 388.74 538.65 388.57 C 538.42 380.60 538.54 372.61 538.55 364.64 C 520.30 364.72 502.03 364.88 483.78 364.62 C 484.30 350.72 483.89 336.79 484.02 322.88 C 496.82 322.70 509.63 322.85 522.44 322.77 C 522.37 315.03 522.40 307.30 522.46 299.56 C 509.57 299.57 496.67 299.80 483.79 299.64 C 484.18 286.68 484.15 273.69 483.80 260.73 C 501.05 260.78 518.30 260.72 535.55 260.75 C 535.61 252.58 535.20 244.39 535.81 236.23 C 509.96 237.00 484.06 236.15 458.20 236.64 M 167.07 444.78 C 193.03 475.17 228.04 498.10 266.95 507.81 C 294.38 514.74 323.19 515.78 351.12 511.49 C 368.35 508.53 385.63 504.30 401.26 496.30 C 407.41 505.44 413.18 514.83 419.10 524.12 C 423.42 520.49 426.65 515.77 430.59 511.76 C 450.58 489.66 470.01 467.06 489.65 444.65 C 463.79 445.53 437.92 446.03 412.05 446.63 C 398.71 447.17 385.35 447.41 372.00 447.61 L 371.88 448.76 C 377.36 457.48 383.11 466.04 388.39 474.88 C 375.67 481.08 361.83 484.62 347.95 487.05 C 328.45 490.15 308.45 490.39 288.94 487.26 C 251.33 481.53 216.76 461.63 190.55 434.41 C 186.99 430.79 182.53 427.45 181.58 422.15 C 178.90 430.90 172.09 437.37 167.07 444.78 Z" />
</g>
</svg>
