<?xml version="1.0" encoding="UTF-8" ?>
<!DOCTYPE svg PUBLIC "-//W3C//DTD SVG 1.1//EN" "http://www.w3.org/Graphics/SVG/1.1/DTD/svg11.dtd">
<svg width="1024pt" height="1024pt" viewBox="0 0 1024 1024" version="1.1" xmlns="http://www.w3.org/2000/svg">
<g id="#fbfafbff">
</g>
<g id="#000000ff">
<path fill="#000000" opacity="1.00" d=" M 405.43 129.55 C 446.92 128.20 488.48 129.40 530.00 129.00 C 559.94 129.37 589.91 128.27 619.83 129.46 C 633.29 131.43 645.31 139.93 653.44 150.58 C 664.90 165.46 661.63 185.46 662.93 202.99 C 663.05 416.33 663.03 629.67 662.95 843.01 C 663.33 861.67 652.80 880.51 635.99 888.98 C 626.48 894.85 614.81 894.95 604.01 895.05 C 547.34 894.96 490.67 895.00 433.99 895.02 C 419.02 894.66 403.13 895.56 389.34 888.64 C 370.00 878.76 360.62 855.92 361.06 835.02 C 360.89 616.68 361.09 398.33 360.96 179.98 C 359.65 154.99 380.84 131.97 405.43 129.55 M 409.41 148.56 C 402.63 149.10 396.50 152.26 390.94 155.94 C 384.22 160.76 380.78 169.04 380.23 177.11 C 379.58 190.73 380.08 204.37 380.00 218.00 C 380.00 393.00 379.99 568.00 380.00 743.00 C 380.03 761.18 379.58 779.38 380.68 797.55 C 381.38 811.02 379.78 824.49 380.20 837.98 C 380.47 850.16 385.67 862.97 396.05 869.92 C 402.76 874.50 411.13 874.88 418.97 875.01 C 471.11 875.23 523.25 874.57 575.39 875.32 C 592.17 875.39 609.34 877.65 625.65 872.59 C 630.80 870.58 634.62 866.21 637.86 861.91 C 643.90 854.40 643.85 844.13 644.04 835.02 C 643.96 621.67 644.01 408.33 644.01 194.99 C 643.71 186.20 644.00 177.14 641.40 168.63 C 636.67 155.71 622.78 146.83 609.03 147.90 C 555.69 148.07 502.34 147.99 449.00 147.99 C 435.80 148.08 422.57 147.40 409.41 148.56 Z" />
</g>
</svg>
