<?xml version="1.0" encoding="UTF-8" ?>
<!DOCTYPE svg PUBLIC "-//W3C//DTD SVG 1.1//EN" "http://www.w3.org/Graphics/SVG/1.1/DTD/svg11.dtd">
<svg width="736pt" height="1598pt" viewBox="0 0 736 1598" version="1.1" xmlns="http://www.w3.org/2000/svg">
<g id="#000000ff">
<path fill="#000000" opacity="1.00" d=" M 50.25 0.00 L 681.10 0.00 C 688.26 0.93 695.91 -0.35 702.76 2.46 C 715.91 7.22 725.06 19.16 730.20 31.74 C 733.69 40.18 735.38 49.25 736.00 58.33 L 736.00 351.65 C 735.22 366.82 730.80 382.23 721.24 394.26 C 715.07 402.08 706.28 408.27 696.27 409.69 C 691.83 410.23 687.34 409.94 682.88 410.00 C 682.81 571.33 683.10 732.65 683.00 893.98 C 683.07 990.99 682.77 1087.99 682.88 1185.00 C 689.59 1185.04 696.55 1184.42 702.93 1187.01 C 715.36 1191.65 724.20 1202.73 729.40 1214.59 C 733.42 1223.64 735.34 1233.48 736.00 1243.33 L 736.00 1539.39 C 735.14 1554.86 730.61 1570.59 720.72 1582.76 C 714.24 1590.89 704.79 1596.98 694.29 1598.00 L 41.88 1598.00 C 27.22 1596.73 15.44 1585.70 8.91 1573.14 C 3.35 1562.85 0.74 1551.22 0.00 1539.62 L 0.00 1243.60 C 0.76 1230.22 4.20 1216.76 11.52 1205.42 C 17.05 1196.76 25.14 1189.31 35.14 1186.32 C 41.12 1184.42 47.46 1185.11 53.62 1185.00 C 53.29 1022.68 53.64 860.36 53.62 698.04 C 53.62 602.03 53.63 506.01 53.62 410.00 C 47.18 409.89 40.54 410.62 34.34 408.45 C 23.23 404.85 14.67 395.90 9.18 385.85 C 3.42 375.47 0.70 363.66 0.00 351.88 L 0.00 58.62 C 1.02 39.82 7.81 20.05 23.04 8.06 C 30.64 1.88 40.65 -0.10 50.25 0.00 Z" />
</g>
</svg>
