<?xml version="1.0" encoding="UTF-8" ?>
<!DOCTYPE svg PUBLIC "-//W3C//DTD SVG 1.1//EN" "http://www.w3.org/Graphics/SVG/1.1/DTD/svg11.dtd">
<svg width="733pt" height="1587pt" viewBox="0 0 733 1587" version="1.1" xmlns="http://www.w3.org/2000/svg">
<g id="#000000ff">
<path fill="#000000" opacity="1.00" d=" M 46.29 11.38 C 64.57 1.05 86.50 -1.39 107.06 1.43 C 146.38 10.12 176.24 48.05 177.32 88.02 C 178.77 168.34 177.03 248.67 177.90 329.00 C 178.55 361.22 189.61 392.83 207.70 419.37 C 229.62 451.86 262.32 476.84 299.40 489.52 C 318.33 495.78 338.20 498.55 358.02 500.12 C 412.18 503.71 467.78 482.63 505.16 443.10 C 516.54 431.35 525.33 417.46 533.54 403.40 C 549.37 374.73 554.24 341.43 554.61 309.07 C 555.33 236.71 554.36 164.35 554.75 91.98 C 552.60 61.63 568.69 31.55 593.49 14.47 C 606.47 5.41 622.16 0.25 638.03 0.36 C 665.71 -1.35 693.41 11.98 710.26 33.82 C 718.94 45.51 725.90 58.74 728.68 73.14 C 733.47 96.78 731.94 121.06 732.26 145.03 C 731.77 173.34 732.09 201.66 732.00 229.98 C 732.00 260.99 731.99 292.00 732.01 323.02 C 732.79 353.69 732.40 384.46 728.61 414.95 C 720.05 486.08 695.80 555.80 655.10 615.00 C 648.04 625.55 639.81 635.25 632.72 645.77 C 622.07 661.35 612.73 677.83 604.77 694.94 C 590.44 725.39 581.14 757.96 574.88 790.96 C 568.69 825.06 567.47 859.80 566.49 894.37 C 584.68 894.55 602.90 893.90 621.07 895.09 C 629.20 895.34 638.22 896.50 643.95 902.93 C 649.69 908.85 647.43 917.70 648.51 925.09 C 649.06 950.05 648.59 975.02 648.75 999.99 C 648.49 1188.32 648.64 1376.65 648.77 1564.97 C 649.17 1572.41 645.80 1580.40 638.96 1583.92 C 631.41 1587.81 622.61 1584.51 614.75 1587.00 L 103.36 1587.00 C 94.74 1585.72 84.88 1580.02 84.25 1570.44 C 81.50 1551.40 83.21 1532.15 83.70 1513.04 C 84.01 1473.04 83.82 1433.03 83.87 1393.03 C 84.15 1340.69 83.73 1288.34 83.87 1236.00 C 83.93 1171.98 83.75 1107.97 84.00 1043.95 C 84.07 1004.63 83.97 965.28 81.77 926.00 C 81.56 918.79 82.25 911.23 85.83 904.83 C 88.13 900.66 92.25 897.47 97.01 896.76 C 120.93 892.55 145.28 894.85 169.40 894.22 C 168.58 842.84 161.59 791.30 145.84 742.29 C 134.71 707.70 119.08 674.45 98.45 644.49 C 91.44 634.52 83.96 624.89 77.36 614.64 C 56.06 582.30 38.89 547.26 26.25 510.67 C 5.11 450.27 0.27 385.63 0.41 322.07 C 1.03 245.06 0.09 168.05 0.69 91.05 C 1.20 77.40 4.66 63.91 10.54 51.60 C 18.48 35.32 30.51 20.56 46.29 11.38 M 72.94 43.96 C 61.72 48.61 53.24 58.12 47.71 68.71 C 42.26 79.63 40.81 91.99 40.37 104.04 C 39.80 124.69 40.34 145.35 40.25 166.01 C 40.22 219.69 40.31 273.37 40.19 327.04 C 40.35 372.34 43.80 417.91 54.57 462.02 C 68.38 517.49 94.35 569.67 128.78 615.19 C 160.54 658.18 182.04 708.18 194.59 759.98 C 205.31 803.91 209.68 849.22 209.42 894.39 C 314.47 895.19 419.54 893.08 524.59 895.53 C 525.14 843.68 529.99 791.57 543.54 741.40 C 552.26 708.69 565.18 677.14 581.66 647.59 C 598.03 619.01 619.55 593.81 636.53 565.61 C 664.14 517.62 681.37 463.86 688.07 408.95 C 691.03 386.43 690.70 363.67 691.00 341.01 C 691.10 312.33 690.41 283.66 690.23 254.98 C 689.60 200.30 691.12 145.62 689.84 90.95 C 689.29 76.72 682.14 63.53 673.02 52.93 C 660.34 41.79 641.22 36.14 625.23 43.24 C 618.72 46.73 611.97 50.33 607.19 56.13 C 598.09 66.82 594.57 81.20 594.38 94.98 C 594.34 168.66 594.60 242.34 594.62 316.03 C 595.43 353.21 587.40 390.83 569.64 423.63 C 545.06 472.51 499.93 509.35 448.97 528.10 C 429.16 535.66 408.11 539.45 387.02 541.00 C 346.46 543.82 305.21 537.11 267.72 521.33 C 198.71 491.59 146.96 423.79 138.78 348.80 C 137.58 338.57 137.63 328.26 137.87 317.98 C 138.13 245.32 138.22 172.66 138.05 100.00 C 138.85 78.65 128.72 56.00 109.59 45.40 C 98.53 38.94 84.52 38.77 72.94 43.96 Z" />
</g>
</svg>
